HIERARCHY
ROOT Hips
{
	OFFSET 0.00000 0.00000 0.00000
	CHANNELS 6 Xposition Yposition Zposition Zrotation Yrotation Xrotation 
	JOINT LHipJoint
	{
		OFFSET 0 0 0
		CHANNELS 3 Zrotation Yrotation Xrotation
		JOINT LeftHip
		{
			OFFSET 1.28858 -1.83292 1.03970
			CHANNELS 3 Zrotation Yrotation Xrotation
			JOINT LeftKnee
			{
				OFFSET 2.47846 -6.80952 0.00000
				CHANNELS 3 Zrotation Yrotation Xrotation
				JOINT LeftAnkle
				{
					OFFSET 2.75274 -7.56311 0.00000
					CHANNELS 3 Zrotation Yrotation Xrotation
					JOINT LeftToe
					{
						OFFSET 0.12848 -0.35301 1.68223
						CHANNELS 3 Zrotation Yrotation Xrotation
						End Site
						{
							OFFSET 0.00000 -0.00000 0.87311
						}
					}
				}
			}
		}
	}
	JOINT RHipJoint
	{
		OFFSET 0 0 0
		CHANNELS 3 Zrotation Yrotation Xrotation
		JOINT RightHip
		{
			OFFSET -1.31183 -1.83292 1.03970
			CHANNELS 3 Zrotation Yrotation Xrotation
			JOINT RightKnee
			{
				OFFSET -2.44740 -6.72417 0.00000
				CHANNELS 3 Zrotation Yrotation Xrotation
				JOINT RightAnkle
				{
					OFFSET -2.67343 -7.34519 0.00000
					CHANNELS 3 Zrotation Yrotation Xrotation
					JOINT RightToe
					{
						OFFSET -0.16914 -0.46471 1.77626
						CHANNELS 3 Zrotation Yrotation Xrotation
						End Site
						{
							OFFSET -0.00000 -0.00000 0.92777
						}
					}
				}
			}
		}
	}
	JOINT lowerback
	{
		OFFSET 0 0 0
		CHANNELS 3 Zrotation Yrotation Xrotation
		JOINT Chest
		{
			OFFSET 0.01249 2.14252 0.03842
			CHANNELS 3 Zrotation Yrotation Xrotation
			JOINT Chest2
			{
				OFFSET -0.02957 2.14199 -0.03751
				CHANNELS 3 Zrotation Yrotation Xrotation
				JOINT lowerneck
				{
					OFFSET 0 0 0
					CHANNELS 3 Zrotation Yrotation Xrotation
					JOINT Neck
					{
						OFFSET -0.01678 1.65709 -0.05476
						CHANNELS 3 Zrotation Yrotation Xrotation
						JOINT Head
						{
							OFFSET 0.07912 1.58331 -0.11843
							CHANNELS 3 Zrotation Yrotation Xrotation
							End Site
							{
								OFFSET 0.03298 1.73940 -0.04271
							}
						}
					}
				}
				JOINT LeftCollar
				{
					OFFSET 0 0 0
					CHANNELS 3 Zrotation Yrotation Xrotation
					JOINT LeftShoulder
					{
						OFFSET 3.39556 1.16496 0.08673
CHANNELS 3 Zrotation Xrotation Yrotation
						JOINT LeftElbow
						{
OFFSET 0 -5.239100 -0.000000
CHANNELS 3 Zrotation Xrotation Yrotation
							JOINT LeftWrist
							{
OFFSET 0 -3.314670 0.000000
CHANNELS 3 Zrotation Xrotation Yrotation
								JOINT lhand
								{
									OFFSET 0 0 0
CHANNELS 3 Zrotation Xrotation Yrotation
									JOINT LFingers
									{
OFFSET 0 -0.965900 0.000000
CHANNELS 3 Zrotation Xrotation Yrotation
										End Site
										{
OFFSET 0 -0.778730 0.000000
										}
									}
								}
								JOINT LThumb
								{
OFFSET 0 0.000000 0.000000
CHANNELS 3 Zrotation Xrotation Yrotation
									End Site
									{
OFFSET 0 -0.790620 0.790620
									}
								}
							}
						}
					}
				}
				JOINT RightCollar
				{
					OFFSET 0 0 0
					CHANNELS 3 Zrotation Yrotation Xrotation
					JOINT RightShoulder
					{
						OFFSET -3.27193 1.31331 0.33940
CHANNELS 3 Zrotation Xrotation Yrotation
						JOINT RightElbow
						{
OFFSET 0 -5.302520 0.000000
CHANNELS 3 Zrotation Xrotation Yrotation
							JOINT RightWrist
							{
OFFSET 0 -3.678750 0.000000
CHANNELS 3 Zrotation Xrotation Yrotation
								JOINT rhand
								{
									OFFSET 0 0 0
CHANNELS 3 Zrotation Xrotation Yrotation
									JOINT RFingers
									{
OFFSET 0 -0.594810 0.000000
CHANNELS 3 Zrotation Xrotation Yrotation
										End Site
										{
OFFSET 0 -0.479550 0.000000
										}
									}
								}
								JOINT RThumb
								{
OFFSET 0 0.000000 0.000000
CHANNELS 3 Zrotation Xrotation Yrotation
									End Site
									{
OFFSET 0 -0.486870 0.486870
									}
								}
							}
						}
					}
				}
			}
		}
	}
}
MOTION
Frames: 7
Frame Time: 0.008333333333333333
12.044300 18.261600 27.546900 -177.055000 2.122700 -174.318000 0.000000 0.000000 0.000000 -16.529500 -2.260200 1.691800 0.031200 1.139600 3.133100 -0.015700 -7.639700 -5.002100 4.668000 12.999900 39.368100 0.000000 0.000000 0.000000 25.900800 5.889700 4.663700 -0.006800 -0.533900 1.467000 0.266400 -10.878500 -10.344000 -0.203100 2.901700 -8.005200 3.841800 1.447400 -9.399200 -0.557000 2.096200 -4.988400 -2.534300 1.177700 0.227600 -1.606100 -1.655700 -2.473100 4.418800 -2.263500 0.165700 1.611900 -1.126700 0.540200 -0.000000 -0.000000 0.000000 5.891300 3.447300 -53.206600 11.012600 -18.307500 1.779900 2.764800 -17.544400 10.753500 0.000000 0.000000 0.000000 -7.125000 0.000000 0.000000 -17.026300 19.431300 -10.879500 -0.000000 -0.000000 0.000000 -5.031000 14.248200 49.666900 -14.370600 -23.262100 -2.972900 -6.581200 8.131700 43.840600 0.000000 0.000000 0.000000 7.125000 0.000000 -0.000000 45.186400 69.029900 -28.007000
12.053044 18.271303 27.560927 -176.935020 1.820463 -174.513289 0.000000 0.000000 0.000000 -16.233502 -1.894873 1.605826 0.034481 1.198585 3.295408 -0.051194 -7.818947 -4.301163 4.851009 13.214070 40.175078 0.000000 0.000000 0.000000 26.238401 5.953298 4.924719 -0.006680 -0.526432 1.446437 0.096533 -10.529288 -13.325258 -0.087835 1.819906 -5.010669 3.799645 1.303234 -9.015095 -0.454920 1.919324 -5.022933 -2.433439 1.083900 -0.035603 -1.441470 -1.636425 -2.094766 4.149236 -2.225606 -0.232730 1.501174 -1.116063 0.345265 0.000000 0.000000 0.000000 6.067331 4.118655 -55.809433 10.948946 -18.209958 1.759943 8.531740 -16.666969 11.982943 0.000000 0.000000 0.000000 -7.125000 0.000000 0.000000 -12.978387 18.040413 -8.543275 0.000000 0.000000 0.000000 -5.038165 14.264777 49.340847 -14.170760 -22.978137 -2.894521 -5.807642 7.969415 43.847346 0.000000 0.000000 0.000000 7.125000 0.000000 0.000000 45.935661 68.784169 -28.303560
12.061808 18.277906 27.574953 -176.943384 1.523449 -174.679544 0.000000 0.000000 0.000000 -16.109671 -1.600330 1.506065 0.038044 1.259324 3.462637 -0.080728 -8.025494 -3.734210 4.860162 13.224603 40.215090 0.000000 0.000000 0.000000 26.401260 5.991857 5.157029 -0.006099 -0.504656 1.386654 -0.148948 -9.766515 -16.129582 -0.006081 0.303240 -0.833475 3.651075 1.175386 -8.644539 -0.426722 1.770125 -5.049565 -2.344564 1.005028 -0.280645 -1.585826 -1.646229 -2.080206 4.284401 -2.240135 -0.104070 1.569072 -1.121445 0.386983 0.000000 0.000000 0.000000 6.102342 4.252160 -55.777627 10.902383 -18.138484 1.745381 7.987163 -16.887814 11.559770 0.000000 0.000000 0.000000 -7.125000 0.000000 0.000000 -13.377454 18.480003 -8.685715 0.000000 0.000000 0.000000 -5.042060 14.269833 49.030742 -13.983117 -22.710568 -2.821657 -5.344323 8.042951 43.878154 0.000000 0.000000 0.000000 7.125000 0.000000 0.000000 46.434262 68.655973 -28.532464
12.068176 18.296448 27.594508 -177.716621 1.091482 -174.845050 0.000000 0.000000 0.000000 -16.944604 -1.178098 1.211194 0.045673 1.378986 3.792094 -0.128051 -8.277283 -2.652983 5.065437 13.456537 41.103434 0.000000 0.000000 0.000000 25.546458 5.593658 5.177793 -0.005720 -0.489603 1.345408 -0.630504 -8.352892 -20.292669 -0.071974 -1.717981 4.727156 2.742642 0.965725 -8.223240 -0.633587 1.567709 -5.120034 -2.075968 0.913347 -0.608975 -1.520222 -1.680831 -1.862635 4.253972 -2.285501 -0.201818 1.549353 -1.147597 0.320234 0.000000 0.000000 0.000000 6.261213 4.541227 -56.086410 10.973280 -18.247330 1.767526 6.212206 -16.654264 9.898064 0.000000 0.000000 0.000000 -7.125000 0.000000 0.000000 -14.724938 20.165919 -9.042012 0.000000 0.000000 0.000000 -5.052564 14.379594 48.774222 -13.861331 -22.536089 -2.774701 -5.738135 8.539135 43.311298 0.000000 0.000000 0.000000 7.125000 0.000000 0.000000 44.973818 68.400607 -27.258337
12.065958 18.315479 27.604696 -178.930848 0.827463 -174.849331 0.000000 0.000000 0.000000 -18.438848 -0.917879 0.908445 0.050338 1.447595 3.981272 -0.157023 -8.410761 -1.886636 5.184662 13.588730 41.614436 0.000000 0.000000 0.000000 23.969605 4.920907 4.857216 -0.006101 -0.504963 1.387533 -0.652661 -8.148066 -20.336153 -0.100782 -2.045735 5.632074 1.471698 0.787508 -8.098864 -0.961724 1.428553 -5.198039 -1.715567 0.869059 -0.780010 -1.535812 -1.708633 -1.707212 4.247016 -2.321352 -0.217263 1.550850 -1.166901 0.290527 0.000000 0.000000 0.000000 6.301732 4.748385 -56.217173 10.933610 -18.186437 1.755174 7.535436 -16.686970 10.572521 0.000000 0.000000 0.000000 -7.125000 0.000000 0.000000 -13.751693 19.466133 -8.633560 0.000000 0.000000 0.000000 -5.142408 14.556685 48.565366 -13.841278 -22.507337 -2.767019 -5.915756 8.848761 43.247679 0.000000 0.000000 0.000000 7.125000 0.000000 0.000000 44.683971 68.413697 -27.068952
12.064088 18.317609 27.604304 -179.010364 0.762305 -174.834900 0.000000 0.000000 0.000000 -18.559351 -0.935575 0.885480 0.050601 1.451023 3.990563 -0.160504 -8.439421 -1.807813 5.125032 13.523122 41.359809 0.000000 0.000000 0.000000 23.827733 4.767590 4.778846 -0.006200 -0.509088 1.398968 -0.661822 -8.085616 -20.374360 -0.101168 -2.050927 5.646326 1.418053 0.779680 -8.124303 -1.028078 1.421760 -5.186181 -1.753653 0.866436 -0.753430 -1.619745 -1.704321 -1.919725 4.383607 -2.323011 0.028359 1.606588 -1.162944 0.405558 0.000000 0.000000 0.000000 6.359924 4.766758 -56.105569 10.782704 -17.954390 1.708378 8.246453 -16.692979 10.325871 0.000000 0.000000 0.000000 -7.125000 0.000000 0.000000 -13.272620 19.681639 -8.249350 0.000000 0.000000 0.000000 -5.111116 14.644161 48.142819 -13.807875 -22.459420 -2.754252 -5.633264 8.976493 43.496401 0.000000 0.000000 0.000000 7.125000 0.000000 0.000000 45.424659 68.492917 -27.661608
12.062520 18.318584 27.604915 -178.989314 0.726544 -174.827220 0.000000 0.000000 0.000000 -18.533532 -0.924896 0.861335 0.050798 1.454608 4.000693 -0.161194 -8.660426 -2.122179 4.304184 12.530745 37.672653 0.000000 0.000000 0.000000 23.856221 4.777229 4.777741 -0.006181 -0.508711 1.397865 -0.728522 -7.867212 -20.841187 -0.162491 -2.594795 7.152628 1.436677 0.753798 -8.139688 -1.038981 1.383980 -5.167308 -1.777561 0.846554 -0.726319 -1.573990 -1.683628 -2.060623 4.380831 -2.300096 0.146092 1.596595 -1.148888 0.464398 0.000000 0.000000 0.000000 6.401727 4.802827 -55.754257 10.636279 -17.728546 1.663495 7.855608 -16.291690 10.504384 0.000000 0.000000 0.000000 -7.125000 0.000000 0.000000 -13.533382 19.520601 -8.471238 0.000000 0.000000 0.000000 -5.094503 14.657390 47.789865 -13.754703 -22.382895 -2.733980 -5.778297 9.195641 43.520210 0.000000 0.000000 0.000000 7.125000 0.000000 0.000000 45.332087 68.555288 -27.656696
